<mxfile host="app.diagrams.net" agent="Mozilla/5.0 (Windows NT 10.0; Win64; x64) AppleWebKit/537.36 (KHTML, like Gecko) Chrome/129.0.0.0 Safari/537.36" version="24.7.17">
  <diagram name="1 oldal" id="Kcm-yNAKG3bEqBdWmB7K">
    <mxGraphModel dx="1112" dy="1229" grid="0" gridSize="10" guides="1" tooltips="1" connect="1" arrows="1" fold="1" page="0" pageScale="1" pageWidth="827" pageHeight="1169" math="0" shadow="0">
      <root>
        <mxCell id="0" />
        <mxCell id="1" parent="0" />
        <mxCell id="mbjVJGNMwLAJzBNH6lex-1" value="Tanszék" style="rounded=0;whiteSpace=wrap;html=1;" parent="1" vertex="1">
          <mxGeometry x="94" y="-220" width="120" height="60" as="geometry" />
        </mxCell>
        <mxCell id="mbjVJGNMwLAJzBNH6lex-2" value="Oktató" style="rounded=0;whiteSpace=wrap;html=1;" parent="1" vertex="1">
          <mxGeometry x="100" y="129" width="120" height="60" as="geometry" />
        </mxCell>
        <mxCell id="mbjVJGNMwLAJzBNH6lex-3" value="Tantárgy" style="rounded=0;whiteSpace=wrap;html=1;" parent="1" vertex="1">
          <mxGeometry x="108" y="530" width="120" height="60" as="geometry" />
        </mxCell>
        <mxCell id="mbjVJGNMwLAJzBNH6lex-4" value="" style="rhombus;whiteSpace=wrap;html=1;" parent="1" vertex="1">
          <mxGeometry x="124" y="324" width="80" height="80" as="geometry" />
        </mxCell>
        <mxCell id="mbjVJGNMwLAJzBNH6lex-5" value="" style="rhombus;whiteSpace=wrap;html=1;" parent="1" vertex="1">
          <mxGeometry x="114" y="-71" width="80" height="80" as="geometry" />
        </mxCell>
        <mxCell id="mbjVJGNMwLAJzBNH6lex-6" value="" style="endArrow=classic;html=1;rounded=0;fontSize=12;startSize=8;endSize=8;curved=1;exitX=0.5;exitY=1;exitDx=0;exitDy=0;entryX=0.5;entryY=0;entryDx=0;entryDy=0;" parent="1" source="mbjVJGNMwLAJzBNH6lex-5" target="mbjVJGNMwLAJzBNH6lex-2" edge="1">
          <mxGeometry width="50" height="50" relative="1" as="geometry">
            <mxPoint x="161" y="225" as="sourcePoint" />
            <mxPoint x="211" y="175" as="targetPoint" />
          </mxGeometry>
        </mxCell>
        <mxCell id="mbjVJGNMwLAJzBNH6lex-7" value="" style="endArrow=classic;html=1;rounded=0;fontSize=12;startSize=8;endSize=8;curved=1;exitX=0.5;exitY=1;exitDx=0;exitDy=0;" parent="1" source="mbjVJGNMwLAJzBNH6lex-5" edge="1">
          <mxGeometry width="50" height="50" relative="1" as="geometry">
            <mxPoint x="166" y="29" as="sourcePoint" />
            <mxPoint x="160" y="116" as="targetPoint" />
          </mxGeometry>
        </mxCell>
        <mxCell id="mbjVJGNMwLAJzBNH6lex-8" value="" style="endArrow=classic;html=1;rounded=0;fontSize=12;startSize=8;endSize=8;curved=1;exitX=0.5;exitY=0;exitDx=0;exitDy=0;entryX=0.5;entryY=1;entryDx=0;entryDy=0;" parent="1" source="mbjVJGNMwLAJzBNH6lex-5" target="mbjVJGNMwLAJzBNH6lex-1" edge="1">
          <mxGeometry width="50" height="50" relative="1" as="geometry">
            <mxPoint x="176" y="39" as="sourcePoint" />
            <mxPoint x="231" y="195" as="targetPoint" />
          </mxGeometry>
        </mxCell>
        <mxCell id="mbjVJGNMwLAJzBNH6lex-9" value="" style="endArrow=classic;html=1;rounded=0;fontSize=12;startSize=8;endSize=8;curved=1;exitX=0.5;exitY=0;exitDx=0;exitDy=0;entryX=0.5;entryY=1;entryDx=0;entryDy=0;" parent="1" source="mbjVJGNMwLAJzBNH6lex-4" target="mbjVJGNMwLAJzBNH6lex-2" edge="1">
          <mxGeometry width="50" height="50" relative="1" as="geometry">
            <mxPoint x="161" y="225" as="sourcePoint" />
            <mxPoint x="164" y="306" as="targetPoint" />
          </mxGeometry>
        </mxCell>
        <mxCell id="mbjVJGNMwLAJzBNH6lex-10" value="" style="endArrow=classic;html=1;rounded=0;fontSize=12;startSize=8;endSize=8;curved=1;exitX=0.5;exitY=0;exitDx=0;exitDy=0;" parent="1" source="mbjVJGNMwLAJzBNH6lex-4" edge="1">
          <mxGeometry width="50" height="50" relative="1" as="geometry">
            <mxPoint x="347" y="225" as="sourcePoint" />
            <mxPoint x="161" y="210" as="targetPoint" />
          </mxGeometry>
        </mxCell>
        <mxCell id="mbjVJGNMwLAJzBNH6lex-11" value="" style="endArrow=classic;html=1;rounded=0;fontSize=12;startSize=8;endSize=8;curved=1;exitX=0.5;exitY=1;exitDx=0;exitDy=0;" parent="1" source="mbjVJGNMwLAJzBNH6lex-4" edge="1">
          <mxGeometry width="50" height="50" relative="1" as="geometry">
            <mxPoint x="181" y="245" as="sourcePoint" />
            <mxPoint x="168" y="510" as="targetPoint" />
          </mxGeometry>
        </mxCell>
        <mxCell id="mbjVJGNMwLAJzBNH6lex-12" value="" style="endArrow=classic;html=1;rounded=0;fontSize=12;startSize=8;endSize=8;curved=1;exitX=0.5;exitY=1;exitDx=0;exitDy=0;entryX=0.5;entryY=0;entryDx=0;entryDy=0;" parent="1" source="mbjVJGNMwLAJzBNH6lex-4" target="mbjVJGNMwLAJzBNH6lex-3" edge="1">
          <mxGeometry width="50" height="50" relative="1" as="geometry">
            <mxPoint x="191" y="255" as="sourcePoint" />
            <mxPoint x="241" y="205" as="targetPoint" />
          </mxGeometry>
        </mxCell>
        <mxCell id="mbjVJGNMwLAJzBNH6lex-14" value="lezárás&lt;div&gt;módja&lt;/div&gt;" style="ellipse;whiteSpace=wrap;html=1;" parent="1" vertex="1">
          <mxGeometry x="358" y="631" width="88" height="42" as="geometry" />
        </mxCell>
        <mxCell id="mbjVJGNMwLAJzBNH6lex-15" value="beosztás" style="ellipse;whiteSpace=wrap;html=1;" parent="1" vertex="1">
          <mxGeometry x="308" y="183" width="88" height="42" as="geometry" />
        </mxCell>
        <mxCell id="mbjVJGNMwLAJzBNH6lex-16" value="név" style="ellipse;whiteSpace=wrap;html=1;" parent="1" vertex="1">
          <mxGeometry x="308" y="93" width="88" height="42" as="geometry" />
        </mxCell>
        <mxCell id="mbjVJGNMwLAJzBNH6lex-17" value="&lt;u&gt;neptunkód&lt;/u&gt;" style="ellipse;whiteSpace=wrap;html=1;" parent="1" vertex="1">
          <mxGeometry x="-93" y="141" width="88" height="42" as="geometry" />
        </mxCell>
        <mxCell id="mbjVJGNMwLAJzBNH6lex-18" value="&lt;u&gt;kód&lt;/u&gt;" style="ellipse;whiteSpace=wrap;html=1;" parent="1" vertex="1">
          <mxGeometry x="-15" y="-318" width="88" height="42" as="geometry" />
        </mxCell>
        <mxCell id="mbjVJGNMwLAJzBNH6lex-19" value="név" style="ellipse;whiteSpace=wrap;html=1;" parent="1" vertex="1">
          <mxGeometry x="126" y="-318" width="88" height="42" as="geometry" />
        </mxCell>
        <mxCell id="mbjVJGNMwLAJzBNH6lex-20" value="kar" style="ellipse;whiteSpace=wrap;html=1;" parent="1" vertex="1">
          <mxGeometry x="280" y="-318" width="88" height="42" as="geometry" />
        </mxCell>
        <mxCell id="mbjVJGNMwLAJzBNH6lex-21" value="kredit" style="ellipse;whiteSpace=wrap;html=1;" parent="1" vertex="1">
          <mxGeometry x="199" y="631" width="88" height="42" as="geometry" />
        </mxCell>
        <mxCell id="mbjVJGNMwLAJzBNH6lex-22" value="név" style="ellipse;whiteSpace=wrap;html=1;" parent="1" vertex="1">
          <mxGeometry x="47" y="631" width="88" height="42" as="geometry" />
        </mxCell>
        <mxCell id="mbjVJGNMwLAJzBNH6lex-23" value="&lt;u&gt;neptunkód&lt;/u&gt;" style="ellipse;whiteSpace=wrap;html=1;" parent="1" vertex="1">
          <mxGeometry x="-96" y="633" width="88" height="42" as="geometry" />
        </mxCell>
        <mxCell id="mbjVJGNMwLAJzBNH6lex-25" value="" style="endArrow=none;html=1;rounded=0;fontSize=12;startSize=8;endSize=8;curved=1;exitX=0.5;exitY=0;exitDx=0;exitDy=0;entryX=0.5;entryY=1;entryDx=0;entryDy=0;" parent="1" source="mbjVJGNMwLAJzBNH6lex-14" target="mbjVJGNMwLAJzBNH6lex-3" edge="1">
          <mxGeometry width="50" height="50" relative="1" as="geometry">
            <mxPoint x="-73" y="-39" as="sourcePoint" />
            <mxPoint x="-23" y="-89" as="targetPoint" />
          </mxGeometry>
        </mxCell>
        <mxCell id="mbjVJGNMwLAJzBNH6lex-26" value="" style="endArrow=none;html=1;rounded=0;fontSize=12;startSize=8;endSize=8;curved=1;exitX=0.5;exitY=0;exitDx=0;exitDy=0;entryX=0.5;entryY=1;entryDx=0;entryDy=0;" parent="1" source="mbjVJGNMwLAJzBNH6lex-21" target="mbjVJGNMwLAJzBNH6lex-3" edge="1">
          <mxGeometry width="50" height="50" relative="1" as="geometry">
            <mxPoint x="-63" y="-29" as="sourcePoint" />
            <mxPoint x="-13" y="-79" as="targetPoint" />
          </mxGeometry>
        </mxCell>
        <mxCell id="mbjVJGNMwLAJzBNH6lex-27" value="" style="endArrow=none;html=1;rounded=0;fontSize=12;startSize=8;endSize=8;curved=1;exitX=0.5;exitY=0;exitDx=0;exitDy=0;entryX=0.5;entryY=1;entryDx=0;entryDy=0;" parent="1" source="mbjVJGNMwLAJzBNH6lex-22" target="mbjVJGNMwLAJzBNH6lex-3" edge="1">
          <mxGeometry width="50" height="50" relative="1" as="geometry">
            <mxPoint x="-53" y="-19" as="sourcePoint" />
            <mxPoint x="-3" y="-69" as="targetPoint" />
          </mxGeometry>
        </mxCell>
        <mxCell id="mbjVJGNMwLAJzBNH6lex-28" value="" style="endArrow=none;html=1;rounded=0;fontSize=12;startSize=8;endSize=8;curved=1;exitX=0.5;exitY=1;exitDx=0;exitDy=0;entryX=0.5;entryY=0;entryDx=0;entryDy=0;" parent="1" source="mbjVJGNMwLAJzBNH6lex-3" target="mbjVJGNMwLAJzBNH6lex-23" edge="1">
          <mxGeometry width="50" height="50" relative="1" as="geometry">
            <mxPoint x="-43" y="-9" as="sourcePoint" />
            <mxPoint x="7" y="-59" as="targetPoint" />
          </mxGeometry>
        </mxCell>
        <mxCell id="mbjVJGNMwLAJzBNH6lex-29" value="" style="endArrow=none;html=1;rounded=0;fontSize=12;startSize=8;endSize=8;curved=1;exitX=0;exitY=0.5;exitDx=0;exitDy=0;entryX=1;entryY=0.5;entryDx=0;entryDy=0;" parent="1" source="mbjVJGNMwLAJzBNH6lex-15" target="mbjVJGNMwLAJzBNH6lex-2" edge="1">
          <mxGeometry width="50" height="50" relative="1" as="geometry">
            <mxPoint x="-33" y="1" as="sourcePoint" />
            <mxPoint x="17" y="-49" as="targetPoint" />
          </mxGeometry>
        </mxCell>
        <mxCell id="mbjVJGNMwLAJzBNH6lex-30" value="" style="endArrow=none;html=1;rounded=0;fontSize=12;startSize=8;endSize=8;curved=1;exitX=1;exitY=0.5;exitDx=0;exitDy=0;entryX=0;entryY=0.5;entryDx=0;entryDy=0;" parent="1" source="mbjVJGNMwLAJzBNH6lex-2" target="mbjVJGNMwLAJzBNH6lex-16" edge="1">
          <mxGeometry width="50" height="50" relative="1" as="geometry">
            <mxPoint x="-23" y="11" as="sourcePoint" />
            <mxPoint x="27" y="-39" as="targetPoint" />
          </mxGeometry>
        </mxCell>
        <mxCell id="mbjVJGNMwLAJzBNH6lex-31" value="" style="endArrow=none;html=1;rounded=0;fontSize=12;startSize=8;endSize=8;curved=1;exitX=1;exitY=0.5;exitDx=0;exitDy=0;entryX=0;entryY=0.5;entryDx=0;entryDy=0;" parent="1" source="mbjVJGNMwLAJzBNH6lex-17" target="mbjVJGNMwLAJzBNH6lex-2" edge="1">
          <mxGeometry width="50" height="50" relative="1" as="geometry">
            <mxPoint x="-13" y="21" as="sourcePoint" />
            <mxPoint x="37" y="-29" as="targetPoint" />
          </mxGeometry>
        </mxCell>
        <mxCell id="mbjVJGNMwLAJzBNH6lex-32" value="" style="endArrow=none;html=1;rounded=0;fontSize=12;startSize=8;endSize=8;curved=1;exitX=0.5;exitY=0;exitDx=0;exitDy=0;entryX=0.5;entryY=1;entryDx=0;entryDy=0;" parent="1" source="mbjVJGNMwLAJzBNH6lex-1" target="mbjVJGNMwLAJzBNH6lex-20" edge="1">
          <mxGeometry width="50" height="50" relative="1" as="geometry">
            <mxPoint x="-3" y="31" as="sourcePoint" />
            <mxPoint x="47" y="-19" as="targetPoint" />
          </mxGeometry>
        </mxCell>
        <mxCell id="mbjVJGNMwLAJzBNH6lex-33" value="" style="endArrow=none;html=1;rounded=0;fontSize=12;startSize=8;endSize=8;curved=1;exitX=0.5;exitY=1;exitDx=0;exitDy=0;entryX=0.5;entryY=0;entryDx=0;entryDy=0;" parent="1" source="mbjVJGNMwLAJzBNH6lex-19" target="mbjVJGNMwLAJzBNH6lex-1" edge="1">
          <mxGeometry width="50" height="50" relative="1" as="geometry">
            <mxPoint x="7" y="41" as="sourcePoint" />
            <mxPoint x="289" y="-149" as="targetPoint" />
          </mxGeometry>
        </mxCell>
        <mxCell id="mbjVJGNMwLAJzBNH6lex-34" value="" style="endArrow=none;html=1;rounded=0;fontSize=12;startSize=8;endSize=8;curved=1;exitX=0.5;exitY=0;exitDx=0;exitDy=0;entryX=0.5;entryY=1;entryDx=0;entryDy=0;" parent="1" source="mbjVJGNMwLAJzBNH6lex-1" target="mbjVJGNMwLAJzBNH6lex-18" edge="1">
          <mxGeometry width="50" height="50" relative="1" as="geometry">
            <mxPoint x="17" y="51" as="sourcePoint" />
            <mxPoint x="67" y="1" as="targetPoint" />
          </mxGeometry>
        </mxCell>
        <mxCell id="SHsPxNyJxXozRfvmnP8A-1" value="tanév/félév" style="ellipse;whiteSpace=wrap;html=1;" vertex="1" parent="1">
          <mxGeometry x="-78" y="343" width="88" height="42" as="geometry" />
        </mxCell>
        <mxCell id="SHsPxNyJxXozRfvmnP8A-2" value="" style="endArrow=none;html=1;rounded=0;fontSize=12;startSize=8;endSize=8;curved=1;exitX=1;exitY=0.5;exitDx=0;exitDy=0;entryX=0;entryY=0.5;entryDx=0;entryDy=0;" edge="1" parent="1" source="SHsPxNyJxXozRfvmnP8A-1" target="mbjVJGNMwLAJzBNH6lex-4">
          <mxGeometry width="50" height="50" relative="1" as="geometry">
            <mxPoint x="150" y="413" as="sourcePoint" />
            <mxPoint x="200" y="363" as="targetPoint" />
          </mxGeometry>
        </mxCell>
      </root>
    </mxGraphModel>
  </diagram>
</mxfile>
